<svg width="1766" height="257" viewBox="0 0 1766 257" fill="none" xmlns="http://www.w3.org/2000/svg">
<path d="M147.003 110.145C101.405 110.145 36.754 180.567 36.754 225.019C36.754 245.039 52.1487 257 77.948 257C105.993 257 124.511 242.613 147.003 242.613C169.69 242.613 188.26 257 216.058 257C241.857 257 257.252 245.039 257.252 225.019C257.252 180.567 192.601 110.145 147.003 110.145ZM62.4328 102.911C56.461 83.0344 38.0632 70.1616 21.3422 74.1543C4.62108 78.1469 -4.08973 97.4961 1.88208 117.373C7.85389 137.25 26.2517 150.123 42.9727 146.13C59.6938 142.138 68.4046 122.788 62.4328 102.911ZM111.08 90.9909C128.846 86.3214 137.735 62.3428 130.936 37.4348C124.138 12.5269 104.224 -3.87384 86.4579 0.795683C68.6917 5.46521 59.8029 29.4438 66.6016 54.3518C73.4003 79.2598 93.3197 95.6662 111.08 90.9909ZM272.658 74.16C255.937 70.1674 237.545 83.0401 231.567 102.917C225.595 122.794 234.306 142.143 251.027 146.136C267.748 150.129 286.14 137.256 292.118 117.379C298.09 97.5019 289.379 78.1526 272.658 74.16ZM182.926 90.9909C200.692 95.6605 220.605 79.2598 227.404 54.3518C234.203 29.4438 225.314 5.47094 207.548 0.795683C189.782 -3.87958 169.868 12.5269 163.069 37.4348C156.271 62.3428 165.159 86.3214 182.926 90.9909Z" fill="#E84E4E"/>
<path d="M372.92 236.712C369.656 236.712 367.544 234.6 366.584 230.376C365.624 228.264 365.144 224.424 365.144 218.856C365.144 202.152 364.952 187.272 364.568 174.216C363.992 155.4 363.704 135.528 363.704 114.6V51.24C363.704 49.512 364.472 47.88 366.008 46.344C367.736 44.616 369.464 43.752 371.192 43.752L404.312 44.04C410.456 44.232 418.52 44.328 428.504 44.328C442.904 44.328 454.04 44.232 461.912 44.04L472.568 43.752C484.088 43.368 493.592 43.176 501.08 43.176C513.176 43.176 524.696 44.904 535.64 48.36C548.504 52.2 558.968 58.824 567.032 68.232C576.056 78.408 580.568 92.136 580.568 109.416C580.568 138.6 573.176 159.72 558.392 172.776C545.336 185.064 525.848 191.208 499.928 191.208H460.472C460.664 195.624 460.76 200.328 460.76 205.32C460.76 207.048 460.664 209.16 460.472 211.656C460.472 213.96 460.472 217.128 460.472 221.16C460.472 227.496 459.128 231.528 456.44 233.256C454.328 234.984 450.392 235.848 444.632 235.848C436.184 235.848 430.328 235.944 427.064 236.136C413.816 236.136 403.256 236.328 395.384 236.712H372.92ZM476.024 156.648C480.056 156.648 483.032 152.808 484.952 145.128C486.488 139.944 487.64 132.264 488.408 122.088C488.792 116.52 488.984 110.28 488.984 103.368V100.2C488.984 97.128 488.504 92.52 487.544 86.376C486.776 82.92 485.912 80.232 484.952 78.312C483.992 76.2 482.744 74.472 481.208 73.128C479.672 71.4 477.944 70.536 476.024 70.536C475.064 70.536 474.2 70.92 473.432 71.688C472.856 72.456 472.28 73.416 471.704 74.568C469.592 78.024 467.672 85.704 465.944 97.608C465.368 101.064 464.888 106.248 464.504 113.16C463.544 123.72 463.064 137.832 463.064 155.496C463.064 155.496 463.16 155.592 463.352 155.784C463.544 155.976 463.928 156.168 464.504 156.36L467.96 156.648H476.024Z" fill="#E84E4E"/>
<path d="M628.914 237C627.954 237 626.514 236.904 624.594 236.712C622.674 236.328 620.37 236.04 617.682 235.848L611.634 234.408C610.674 234.216 609.906 234.024 609.33 233.832C608.946 233.448 608.85 233.16 609.042 232.968C609.042 227.976 608.754 221.352 608.178 213.096C608.178 210.216 608.082 207.72 607.89 205.608C607.698 203.304 607.506 201.384 607.314 199.848L606.738 187.464C606.738 184.2 606.546 180.072 606.162 175.08L605.874 166.152C605.874 158.856 605.778 153.192 605.586 149.16C605.394 145.128 605.298 136.68 605.298 123.816C605.298 111.72 605.394 99.24 605.586 86.376C605.778 73.512 606.354 61.32 607.314 49.8C607.314 47.688 609.618 45.96 614.226 44.616C617.106 44.232 621.906 44.04 628.626 44.04C644.178 44.04 655.602 43.752 662.898 43.176C685.554 42.792 702.642 42.6 714.162 42.6H726.834C742.578 42.984 754.674 43.56 763.122 44.328C766.194 44.328 768.402 47.976 769.746 55.272C770.322 56.616 770.994 60.072 771.762 65.64C772.338 68.52 773.106 72.072 774.066 76.296C774.258 77.448 774.258 78.6 774.066 79.752C774.066 80.712 774.066 81.288 774.066 81.48C773.874 83.4 772.818 84.36 770.898 84.36C770.13 84.168 768.978 84.072 767.442 84.072C759.378 84.072 749.49 84.744 737.778 86.088L722.514 87.24C716.178 88.008 711.186 88.488 707.538 88.68C706.962 88.68 706.194 89.832 705.234 92.136C704.466 94.632 703.602 100.392 702.642 109.416L702.066 116.616C702.066 119.112 702.354 120.744 702.93 121.512C703.506 122.088 704.754 122.376 706.674 122.376H732.306C739.794 122.376 748.338 122.856 757.938 123.816H761.394C763.89 124.392 765.426 125.352 766.002 126.696C766.77 127.848 767.25 129.096 767.442 130.44L768.594 156.072V156.936C768.594 160.2 765.138 162.12 758.226 162.696C754.194 163.656 746.514 164.136 735.186 164.136C725.394 164.136 719.058 164.04 716.178 163.848C710.61 163.848 707.25 163.944 706.098 164.136C703.986 164.712 702.642 165.864 702.066 167.592C701.49 169.128 701.202 171.816 701.202 175.656C701.202 178.152 701.01 181.704 700.626 186.312C700.434 188.616 700.338 192.264 700.338 197.256C712.818 197.256 722.034 197.064 727.986 196.68C734.514 196.104 743.73 195.816 755.634 195.816C756.402 195.816 757.17 196.488 757.938 197.832C758.898 199.752 760.434 204.072 762.546 210.792C763.698 214.632 764.85 219.432 766.002 225.192C766.386 226.536 766.578 227.976 766.578 229.512C766.578 233.544 764.658 235.56 760.818 235.56C755.826 235.56 749.106 235.752 740.658 236.136C736.242 236.52 729.33 236.712 719.922 236.712C699.762 236.712 684.594 236.808 674.418 237H628.914Z" fill="#E84E4E"/>
<path d="M851.929 237.288C849.241 237.288 847.225 235.464 845.881 231.816C843.001 225.48 841.561 213.96 841.561 197.256C841.561 181.128 841.849 162.6 842.425 141.672C842.617 134.952 842.713 124.584 842.713 110.568L841.849 109.416H809.881C807.385 109.416 805.369 108.072 803.833 105.384C802.489 102.504 801.433 98.568 800.665 93.576C799.705 87.816 799.225 79.56 799.225 68.808V64.776C799.225 62.856 799.321 61.32 799.513 60.168V53.256C799.513 52.104 800.089 51.144 801.241 50.376C802.393 49.416 803.737 48.744 805.273 48.36C807.193 47.784 810.073 47.496 813.913 47.496H835.801C840.601 47.496 844.249 47.592 846.745 47.784L857.401 48.072H961.081C968.569 48.072 973.465 48.168 975.769 48.36C976.729 48.552 978.073 48.744 979.801 48.936C981.529 49.128 982.777 49.512 983.545 50.088C984.889 50.664 985.657 51.432 985.849 52.392C986.233 53.16 986.425 54.408 986.425 56.136V103.656C986.425 105.768 985.561 107.208 983.833 107.976C982.681 108.36 981.145 108.552 979.225 108.552H960.505C956.089 108.552 952.729 108.36 950.425 107.976H941.785C940.057 107.976 939.097 108.36 938.905 109.128C938.905 109.32 938.809 109.608 938.617 109.992C938.425 110.184 938.329 110.472 938.329 110.856V124.968C938.329 127.848 938.233 130.056 938.041 131.592C938.041 137.16 937.657 149.352 936.889 168.168L936.313 176.808C935.929 184.872 935.545 190.728 935.161 194.376V221.736C935.161 228.264 933.817 232.392 931.129 234.12C928.633 235.08 926.905 235.656 925.945 235.848L918.745 236.136C911.257 236.136 905.977 236.328 902.905 236.712L872.665 237C868.825 237.192 861.913 237.288 851.929 237.288Z" fill="#E84E4E"/>
<path d="M1180.96 237C1161.18 237 1146.78 236.904 1137.76 236.712C1129.5 236.712 1123.17 236.616 1118.75 236.424L1095.14 236.136C1093.41 236.136 1091.78 235.368 1090.24 233.832C1088.7 232.296 1087.94 230.664 1087.94 228.936V137.928L1087.65 114.312C1087.65 106.44 1087.84 96.552 1088.22 84.648C1088.22 82.152 1088.51 75.72 1089.09 65.352V58.728C1089.09 53.352 1090.14 49.032 1092.26 45.768C1093.22 44.04 1094.75 43.176 1096.86 43.176C1106.27 43.176 1116.54 43.368 1127.68 43.752C1129.22 43.944 1131.42 44.04 1134.3 44.04C1140.64 44.04 1145.34 44.136 1148.42 44.328H1163.97C1164.74 44.328 1166.94 44.328 1170.59 44.328C1174.43 44.328 1177.41 44.808 1179.52 45.768C1182.98 47.688 1184.7 52.104 1184.7 59.016L1184.42 61.32C1184.42 61.896 1184.22 63.336 1183.84 65.64C1183.26 68.52 1182.98 70.632 1182.98 71.976C1182.98 74.088 1183.26 76.776 1183.84 80.04C1184.22 82.344 1184.42 83.88 1184.42 84.648L1184.7 86.376V166.728C1184.7 168.264 1185.57 169.224 1187.3 169.608C1187.87 169.8 1189.12 169.896 1191.04 169.896H1212.06C1217.25 169.704 1225.12 169.608 1235.68 169.608C1237.79 169.608 1239.52 170.28 1240.86 171.624C1242.21 172.776 1242.88 174.024 1242.88 175.368V230.952C1242.88 232.488 1242.11 233.736 1240.58 234.696C1238.85 235.464 1236.83 235.944 1234.53 236.136C1232.03 236.712 1228.1 237 1222.72 237H1180.96Z" fill="#E84E4E"/>
<path d="M1276 237.288C1274.66 237.288 1273.41 236.808 1272.26 235.848C1271.1 234.696 1270.24 233.256 1269.66 231.528C1268.9 228.072 1268.32 224.232 1267.94 220.008C1267.74 218.664 1267.65 216.84 1267.65 214.536V210.792L1267.94 175.08C1267.94 162.984 1268.22 151.08 1268.8 139.368V48.36C1268.8 46.44 1270.05 45.48 1272.54 45.48C1285.79 45.48 1295.68 45.384 1302.21 45.192H1331.01C1331.58 45.192 1332.06 45.096 1332.45 44.904C1332.83 44.712 1333.31 44.616 1333.89 44.616C1336.38 44.232 1339.84 44.136 1344.26 44.328C1347.52 44.328 1350.98 44.616 1354.62 45.192C1355.78 45.96 1356.64 46.152 1357.22 45.768C1357.6 45.768 1358.37 45.576 1359.52 45.192C1362.4 45.192 1364.61 45.384 1366.14 45.768C1367.87 46.152 1369.22 47.016 1370.18 48.36C1371.14 50.088 1371.9 52.2 1372.48 54.696C1372.67 56.616 1372.77 60.648 1372.77 66.792V127.272C1372.58 128.808 1372.48 132.264 1372.48 137.64C1372.48 143.4 1372.29 147.912 1371.9 151.176L1371.62 164.136C1371.42 167.016 1371.33 170.664 1371.33 175.08L1371.04 179.688V198.12C1371.04 209.64 1370.56 219.432 1369.6 227.496C1369.6 230.184 1368.93 232.872 1367.58 235.56C1364.13 235.56 1359.14 235.752 1352.61 236.136C1349.54 236.136 1347.52 236.328 1346.56 236.712H1342.82C1341.47 236.712 1340.8 236.52 1340.8 236.136C1339.26 235.752 1338.4 235.56 1338.21 235.56L1335.9 236.712H1309.41C1309.22 236.904 1307.68 237 1304.8 237H1283.2L1276 237.288Z" fill="#E84E4E"/>
<path d="M1418.7 240.168C1414.66 240.168 1412.07 236.424 1410.92 228.936C1410.34 225.672 1410.06 222.696 1410.06 220.008V213.672C1409.48 207.336 1409.19 201.192 1409.19 195.24C1408.42 177.576 1407.75 165.096 1407.18 157.8C1407.18 154.536 1406.98 151.08 1406.6 147.432C1406.22 143.592 1405.93 140.904 1405.74 139.368V48.36C1405.74 46.632 1406.41 45.576 1407.75 45.192H1409.48L1410.34 45.48C1417.06 45.48 1425.9 45.192 1436.84 44.616C1451.43 44.232 1463.62 44.04 1473.42 44.04H1476.3C1477.45 44.232 1479.37 44.328 1482.06 44.328H1490.12C1495.88 44.328 1500.39 44.424 1503.66 44.616H1533.32C1536.97 45 1542.92 45.192 1551.18 45.192C1552.71 45.192 1553.86 45.288 1554.63 45.48C1556.17 45.864 1557.9 46.056 1559.82 46.056C1560.58 46.056 1561.35 45.768 1562.12 45.192C1566.54 45.192 1568.94 49.224 1569.32 57.288C1569.7 59.976 1569.9 61.992 1569.9 63.336C1569.9 64.488 1569.7 66.792 1569.32 70.248C1569.13 73.32 1569.03 78.216 1569.03 84.936C1569.03 87.048 1567.21 88.296 1563.56 88.68C1562.6 88.872 1560.97 88.968 1558.66 88.968H1541.67L1533.03 89.256C1531.11 89.832 1528.14 90.12 1524.1 90.12C1520.07 90.12 1517.77 90.024 1517.19 89.832C1516.62 90.024 1516.14 90.216 1515.75 90.408C1515.56 90.6 1515.37 90.696 1515.18 90.696C1515.18 91.08 1515.08 91.464 1514.89 91.848C1514.7 92.232 1514.6 92.808 1514.6 93.576C1514.41 94.92 1513.93 99.912 1513.16 108.552C1512.97 111.048 1512.87 115.464 1512.87 121.8L1512.58 122.376C1512.58 123.144 1512.97 124.008 1513.74 124.968H1548.3C1550.6 124.968 1552.23 125.256 1553.19 125.832C1554.34 126.408 1555.21 127.464 1555.78 129C1556.55 131.304 1556.94 137.256 1556.94 146.856V168.456C1556.55 170.184 1555.98 171.336 1555.21 171.912C1554.63 172.488 1553.77 172.776 1552.62 172.776C1551.08 172.776 1549.64 172.968 1548.3 173.352L1535.34 174.216H1529.58C1526.7 174.216 1524.78 174.408 1523.82 174.792C1522.47 175.176 1520.65 175.464 1518.34 175.656H1514.31C1511.24 175.656 1509.13 176.04 1507.98 176.808C1507.02 177 1506.06 177.96 1505.1 179.688C1505.1 197.16 1504.9 209.064 1504.52 215.4C1504.33 224.616 1503.37 231.336 1501.64 235.56C1498.18 235.56 1493.19 235.752 1486.66 236.136C1483.59 236.136 1481.58 236.328 1480.62 236.712H1477.16C1476.39 236.712 1475.82 236.616 1475.43 236.424C1475.05 236.232 1474.66 236.136 1474.28 236.136L1473.42 235.848C1473.42 235.656 1473.03 235.56 1472.26 235.56C1472.07 235.56 1471.69 235.656 1471.11 235.848C1470.73 236.04 1470.34 236.328 1469.96 236.712H1446.06C1445.86 236.904 1445.38 237 1444.62 237C1444.04 237.192 1443.18 237.48 1442.02 237.864L1424.46 239.88L1418.7 240.168Z" fill="#E84E4E"/>
<path d="M1620.32 237C1619.36 237 1617.92 236.904 1616 236.712C1614.08 236.328 1611.78 236.04 1609.09 235.848L1603.04 234.408C1602.08 234.216 1601.31 234.024 1600.74 233.832C1600.35 233.448 1600.26 233.16 1600.45 232.968C1600.45 227.976 1600.16 221.352 1599.58 213.096C1599.58 210.216 1599.49 207.72 1599.3 205.608C1599.1 203.304 1598.91 201.384 1598.72 199.848L1598.14 187.464C1598.14 184.2 1597.95 180.072 1597.57 175.08L1597.28 166.152C1597.28 158.856 1597.18 153.192 1596.99 149.16C1596.8 145.128 1596.7 136.68 1596.7 123.816C1596.7 111.72 1596.8 99.24 1596.99 86.376C1597.18 73.512 1597.76 61.32 1598.72 49.8C1598.72 47.688 1601.02 45.96 1605.63 44.616C1608.51 44.232 1613.31 44.04 1620.03 44.04C1635.58 44.04 1647.01 43.752 1654.3 43.176C1676.96 42.792 1694.05 42.6 1705.57 42.6H1718.24C1733.98 42.984 1746.08 43.56 1754.53 44.328C1757.6 44.328 1759.81 47.976 1761.15 55.272C1761.73 56.616 1762.4 60.072 1763.17 65.64C1763.74 68.52 1764.51 72.072 1765.47 76.296C1765.66 77.448 1765.66 78.6 1765.47 79.752C1765.47 80.712 1765.47 81.288 1765.47 81.48C1765.28 83.4 1764.22 84.36 1762.3 84.36C1761.54 84.168 1760.38 84.072 1758.85 84.072C1750.78 84.072 1740.9 84.744 1729.18 86.088L1713.92 87.24C1707.58 88.008 1702.59 88.488 1698.94 88.68C1698.37 88.68 1697.6 89.832 1696.64 92.136C1695.87 94.632 1695.01 100.392 1694.05 109.416L1693.47 116.616C1693.47 119.112 1693.76 120.744 1694.34 121.512C1694.91 122.088 1696.16 122.376 1698.08 122.376H1723.71C1731.2 122.376 1739.74 122.856 1749.34 123.816H1752.8C1755.3 124.392 1756.83 125.352 1757.41 126.696C1758.18 127.848 1758.66 129.096 1758.85 130.44L1760 156.072V156.936C1760 160.2 1756.54 162.12 1749.63 162.696C1745.6 163.656 1737.92 164.136 1726.59 164.136C1716.8 164.136 1710.46 164.04 1707.58 163.848C1702.02 163.848 1698.66 163.944 1697.5 164.136C1695.39 164.712 1694.05 165.864 1693.47 167.592C1692.9 169.128 1692.61 171.816 1692.61 175.656C1692.61 178.152 1692.42 181.704 1692.03 186.312C1691.84 188.616 1691.74 192.264 1691.74 197.256C1704.22 197.256 1713.44 197.064 1719.39 196.68C1725.92 196.104 1735.14 195.816 1747.04 195.816C1747.81 195.816 1748.58 196.488 1749.34 197.832C1750.3 199.752 1751.84 204.072 1753.95 210.792C1755.1 214.632 1756.26 219.432 1757.41 225.192C1757.79 226.536 1757.98 227.976 1757.98 229.512C1757.98 233.544 1756.06 235.56 1752.22 235.56C1747.23 235.56 1740.51 235.752 1732.06 236.136C1727.65 236.52 1720.74 236.712 1711.33 236.712C1691.17 236.712 1676 236.808 1665.82 237H1620.32Z" fill="#E84E4E"/>
</svg>
